<?xml version="1.0" encoding="UTF-8"?>
<svg id="Capa_1" data-name="Capa 1" xmlns="http://www.w3.org/2000/svg" xmlns:xlink="http://www.w3.org/1999/xlink" viewBox="0 0 1672.95 300">
  <defs>
    <style>
      .cls-1 {
        fill: #04a6fb;
      }

      .cls-2 {
        fill: #3fdc6d;
      }

      .cls-3 {
        fill: url(#Degradado_sin_nombre_513-2);
      }

      .cls-4 {
        fill: url(#Degradado_sin_nombre_513-5);
      }

      .cls-5 {
        fill: url(#Degradado_sin_nombre_513-3);
      }

      .cls-6 {
        fill: #f4a4ab;
      }

      .cls-7 {
        fill: url(#Degradado_sin_nombre_513-8);
      }

      .cls-8 {
        fill: url(#Degradado_sin_nombre_513-9);
      }

      .cls-9 {
        fill: url(#Degradado_sin_nombre_513);
      }

      .cls-10 {
        fill: #feec44;
      }

      .cls-11 {
        fill: url(#Degradado_sin_nombre_513-6);
      }

      .cls-12 {
        fill: url(#Degradado_sin_nombre_513-4);
      }

      .cls-13 {
        fill: url(#Degradado_sin_nombre_513-7);
      }

      .cls-14 {
        fill: url(#Degradado_sin_nombre_451);
      }
    </style>
    <linearGradient id="Degradado_sin_nombre_451" data-name="Degradado sin nombre 451" x1="23" y1="149" x2="273" y2="149" gradientUnits="userSpaceOnUse">
      <stop offset="0" stop-color="#ff105e"/>
      <stop offset=".01" stop-color="#ff135e"/>
      <stop offset=".49" stop-color="#ff8a6f"/>
      <stop offset=".81" stop-color="#ffd67a"/>
      <stop offset=".96" stop-color="#fff47f"/>
    </linearGradient>
    <linearGradient id="Degradado_sin_nombre_513" data-name="Degradado sin nombre 513" x1="354.58" y1="129.11" x2="531.43" y2="129.11" gradientUnits="userSpaceOnUse">
      <stop offset="0" stop-color="#ff7bac"/>
      <stop offset=".09" stop-color="#f476b5"/>
      <stop offset=".63" stop-color="#b35eea"/>
      <stop offset=".88" stop-color="#9a55ff"/>
    </linearGradient>
    <linearGradient id="Degradado_sin_nombre_513-2" data-name="Degradado sin nombre 513" x1="567.74" y1="153.01" x2="728.39" y2="153.01" xlink:href="#Degradado_sin_nombre_513"/>
    <linearGradient id="Degradado_sin_nombre_513-3" data-name="Degradado sin nombre 513" x1="762.08" y1="124.74" x2="809.23" y2="124.74" xlink:href="#Degradado_sin_nombre_513"/>
    <linearGradient id="Degradado_sin_nombre_513-4" data-name="Degradado sin nombre 513" x1="853.51" y1="153.01" x2="900.66" y2="153.01" xlink:href="#Degradado_sin_nombre_513"/>
    <linearGradient id="Degradado_sin_nombre_513-5" data-name="Degradado sin nombre 513" x1="852.2" y1="40.95" x2="901.96" y2="40.95" xlink:href="#Degradado_sin_nombre_513"/>
    <linearGradient id="Degradado_sin_nombre_513-6" data-name="Degradado sin nombre 513" x1="944.8" y1="150.99" x2="1184.47" y2="150.99" xlink:href="#Degradado_sin_nombre_513"/>
    <linearGradient id="Degradado_sin_nombre_513-7" data-name="Degradado sin nombre 513" x1="1216.99" y1="152.88" x2="1363.41" y2="152.88" xlink:href="#Degradado_sin_nombre_513"/>
    <linearGradient id="Degradado_sin_nombre_513-8" data-name="Degradado sin nombre 513" x1="1390.05" y1="133.49" x2="1500.42" y2="133.49" xlink:href="#Degradado_sin_nombre_513"/>
    <linearGradient id="Degradado_sin_nombre_513-9" data-name="Degradado sin nombre 513" x1="1517.79" y1="152.69" x2="1672.95" y2="152.69" xlink:href="#Degradado_sin_nombre_513"/>
  </defs>
  <path class="cls-14" d="m148,43c58.45,0,106,47.55,106,106s-47.55,106-106,106-106-47.55-106-106,47.55-106,106-106m0-19c-69.04,0-125,55.96-125,125s55.96,125,125,125,125-55.96,125-125S217.04,24,148,24h0Z"/>
  <rect class="cls-2" x="125" width="50" height="300" rx="6" ry="6"/>
  <rect class="cls-1" x="125" y="0" width="50" height="300" rx="6" ry="6" transform="translate(0 300) rotate(-90)"/>
  <rect class="cls-10" x="125" y="0" width="50" height="300" rx="6" ry="6" transform="translate(-62.13 150) rotate(-45)"/>
  <rect class="cls-6" x="124.5" y=".02" width="50" height="300" rx="6" ry="6" transform="translate(149.87 -61.77) rotate(45)"/>
  <g>
    <polygon class="cls-9" points="485.45 143.28 414.53 31.87 354.58 31.87 354.58 226.35 400.56 226.35 400.56 92.87 483.1 226.35 531.43 226.35 531.43 31.87 485.45 31.87 485.45 143.28"/>
    <path class="cls-3" d="m648.06,75.1c-25.25,0-44.95,6.92-59.1,20.77-14.15,13.84-21.22,32.91-21.22,57.21s7.03,43.12,21.09,57.01c14.06,13.89,33.81,20.83,59.23,20.83s45.17-6.94,59.23-20.83c14.06-13.89,21.09-32.89,21.09-57.01s-6.99-43.14-20.96-57.08c-13.97-13.93-33.76-20.9-59.36-20.9Zm29.32,100.11c-1.52,5.27-3.81,9.77-6.86,13.52-2.7,3.4-5.99,5.81-9.86,7.25-3.88,1.44-7.95,2.16-12.21,2.16-4.96,0-9.38-.78-13.26-2.35-3.88-1.57-7.21-4.05-9.99-7.44-2.87-3.57-5.05-8.29-6.53-14.17-1.48-5.88-2.22-12.82-2.22-20.83,0-8.97.85-16.41,2.55-22.33,1.7-5.92,3.98-10.58,6.86-13.98,3.22-3.66,6.6-6.09,10.12-7.31,3.53-1.22,7.55-1.83,12.08-1.83s8.75.74,12.67,2.22c3.92,1.48,7.27,4.01,10.06,7.58,2.79,3.48,4.96,8.14,6.53,13.98,1.57,5.83,2.35,13.06,2.35,21.68,0,9.32-.76,16.61-2.29,21.88Z"/>
    <rect class="cls-5" x="762.08" y="23.12" width="47.15" height="203.23"/>
    <rect class="cls-12" x="853.51" y="79.68" width="47.15" height="146.67"/>
    <rect class="cls-4" x="852.2" y="23.12" width="49.76" height="35.66"/>
    <path class="cls-11" d="m1136.09,75.63c-8.52,0-17.21,2.27-26.08,6.79-8.87,4.53-18,10.75-27.39,18.68-4.17-8.36-9.96-14.69-17.35-19-7.39-4.31-15.91-6.47-25.57-6.47-8.96,0-17.13,1.79-24.53,5.35-7.39,3.57-15.13,8.53-23.22,14.89v-16.2h-47.15v146.67h47.15v-103.96c3.48-2.09,7.4-4.07,11.75-5.94,4.35-1.87,8.84-2.81,13.45-2.81,5.75,0,10.21.72,13.39,2.16,3.18,1.44,5.55,3.72,7.12,6.86,1.57,3.13,2.53,7.21,2.87,12.21.35,5.01.52,11.08.52,18.22v73.27h47.15v-103.96c5.4-3.13,9.97-5.38,13.71-6.73,3.74-1.35,7.58-2.02,11.49-2.02,5.83,0,10.36.72,13.58,2.16,3.22,1.44,5.57,3.72,7.05,6.86,1.57,3.13,2.5,7.18,2.81,12.15.3,4.96.46,11.06.46,18.29v73.27h47.15v-95.48c0-17.85-4.11-31.52-12.33-41.01-8.22-9.49-20.24-14.24-36.06-14.24Z"/>
    <path class="cls-13" d="m1345.58,87.84c-11.89-8.23-31.2-12.34-57.93-12.34-11.23,0-22.45.89-33.63,2.68-11.19,1.79-19.26,3.33-24.23,4.64v35.4h4.31c3.83-1.48,10.14-3.59,18.94-6.33,8.79-2.74,17.06-4.11,24.82-4.11,12.88,0,22.64,1.55,29.26,4.64,6.62,3.09,9.93,8.69,9.93,16.78v.78c-13.84.78-27.21,2-40.1,3.66-12.89,1.65-23.68,4.44-32.39,8.36-8.79,3.92-15.59,9.27-20.38,16.06-4.79,6.79-7.18,15.54-7.18,26.25,0,13.41,4.7,24.42,14.11,33.04,9.4,8.62,21.07,12.93,35,12.93,5.92,0,11.36-.5,16.33-1.5,4.96-1,9.75-2.55,14.37-4.64,3.31-1.57,6.83-3.7,10.58-6.4,3.74-2.7,6.88-5.01,9.4-6.92v15.54h46.63v-99.79c0-17.59-5.94-30.5-17.83-38.73Zm-28.8,100.14c-3.66,3.13-7.9,5.64-12.73,7.55-4.83,1.91-9.6,2.86-14.3,2.86-5.92,0-10.28-.41-13.06-1.24-2.79-.82-5.18-2.1-7.18-3.84-2.09-1.73-3.4-3.56-3.92-5.47-.52-1.91-.79-4.38-.79-7.42,0-4.6,1.24-8.31,3.72-11.13,2.48-2.82,6.07-4.97,10.78-6.44,3.83-1.22,9.45-2.28,16.85-3.19,7.4-.91,14.28-1.63,20.63-2.15v30.46Z"/>
    <path class="cls-7" d="m1456.53,37.75h-47.15v41.93h-19.33v31.87h19.33v68.57c0,17.94,4.46,30.61,13.39,38.01,8.92,7.4,22.53,11.1,40.81,11.1,8.18,0,15.11-.37,20.77-1.11,5.66-.74,11.01-1.76,16.06-3.06v-32.14h-3.91c-1.56.87-4.32,1.83-8.27,2.87s-7.14,1.57-9.57,1.57c-5.9,0-10.4-.89-13.48-2.68-3.08-1.79-5.23-4.21-6.44-7.26-1.3-3.05-2-6.5-2.08-10.33-.09-3.84-.13-8.33-.13-13.47v-52.06h43.88v-31.87h-43.88v-41.93Z"/>
    <path class="cls-8" d="m1672.95,145.24c0-22.64-6.01-39.99-18.02-52.05-12.02-12.06-29.96-18.09-53.81-18.09-25.86,0-46.21,7.08-61.06,21.22-14.85,14.15-22.27,33.33-22.27,57.53s7.84,43.32,23.51,56.55c15.67,13.24,38.22,19.85,67.66,19.85,11.4,0,21.81-.96,31.21-2.87s19.42-5.01,30.04-9.27v-37.75h-5.22c-5.4,4.09-12.76,7.92-22.07,11.49-9.32,3.57-18.94,5.35-28.86,5.35-15.67,0-27.54-3.05-35.59-9.14-8.05-6.09-12.43-14.89-13.13-26.38h107.62v-16.46Zm-107.75-11.1c.7-10.36,3.96-17.89,9.8-22.6,5.83-4.7,13.28-7.05,22.33-7.05,9.75,0,16.93,2.48,21.55,7.44,4.61,4.96,7.05,12.36,7.31,22.2h-61Z"/>
  </g>
</svg>